<svg width="81" height="33" viewBox="0 0 81 33" fill="none" xmlns="http://www.w3.org/2000/svg">
    <g clip-path="url(#clip0_1_121)">
        <path d="M24 0H0V32.4937H24V0Z" fill="white"/>
        <path fill-rule="evenodd" clip-rule="evenodd" d="M12 2.70782C10.1243 2.70782 8.54878 2.84213 7.25007 3.2329C5.94002 3.62709 4.85116 4.30002 4.01358 5.43402C3.176 6.56802 2.67897 8.04223 2.38782 9.81592C2.0992 11.5742 2 13.7073 2 16.2469C2 18.7864 2.0992 20.9195 2.38782 22.6778C2.67897 24.4515 3.176 25.9257 4.01358 27.0597C4.85116 28.1937 5.94002 28.8666 7.25007 29.2609C8.54878 29.6516 10.1243 29.7859 12 29.7859C13.8757 29.7859 15.4512 29.6516 16.7499 29.2609C18.06 28.8666 19.1488 28.1937 19.9864 27.0597C20.824 25.9257 21.321 24.4515 21.6122 22.6778C21.9008 20.9195 22 18.7864 22 16.2469C22 13.7073 21.9008 11.5742 21.6122 9.81592C21.321 8.04223 20.824 6.56802 19.9864 5.43402C19.1488 4.30002 18.06 3.62709 16.7499 3.2329C15.4512 2.84213 13.8757 2.70782 12 2.70782ZM10 8.12344C10.5523 8.12344 11 8.72961 11 9.47735V10.1543H12V9.47735C12 8.72961 12.4477 8.12344 13 8.12344C13.5523 8.12344 14 8.72961 14 9.47735V10.2029C14.6559 10.3336 15.2144 10.7235 15.6304 11.3149C16.136 12.0337 16.375 12.9704 16.375 13.8775C16.375 14.7054 16.176 15.5579 15.7569 16.2469C16.176 16.9359 16.375 17.7883 16.375 18.6162C16.375 19.5235 16.136 20.4601 15.6304 21.1789C15.2144 21.7703 14.6559 22.1602 14 22.2908V23.0164C14 23.7641 13.5523 24.3703 13 24.3703C12.4477 24.3703 12 23.7641 12 23.0164V22.3394H11V23.0164C11 23.7641 10.5523 24.3703 10 24.3703C9.44772 24.3703 9 23.7641 9 23.0164V22.3394H8C7.44772 22.3394 7 21.7333 7 20.9855C7 20.2378 7.44772 19.6316 8 19.6316H9V12.8621H8C7.44772 12.8621 7 12.2559 7 11.5082C7 10.7605 7.44772 10.1543 8 10.1543H9V9.47735C9 8.72961 9.44772 8.12344 10 8.12344Z" fill="#323232"/>
        <path fill-rule="evenodd" clip-rule="evenodd" d="M11 14.8929V12.8621H13.5C13.8768 12.8621 14.0752 13.0304 14.1821 13.1823C14.3015 13.352 14.375 13.6001 14.375 13.8775C14.375 14.1549 14.3015 14.4029 14.1821 14.5727C14.0752 14.7246 13.8768 14.8929 13.5 14.8929H11Z" fill="#323232"/>
        <path fill-rule="evenodd" clip-rule="evenodd" d="M13.5 19.6316C13.8768 19.6316 14.0752 19.4633 14.1821 19.3114C14.3015 19.1416 14.375 18.8936 14.375 18.6162C14.375 18.3388 14.3015 18.0907 14.1821 17.921C14.0752 17.7691 13.8768 17.6008 13.5 17.6008H11V19.6316H13.5Z" fill="#323232"/>
    </g>
    <path d="M71.6246 10.3897C72.7776 10.3897 73.7122 9.13063 73.7122 7.57751C73.7122 6.02438 72.7776 4.76532 71.6246 4.76532C70.4717 4.76532 69.537 6.02438 69.537 7.57751C69.537 9.13063 70.4717 10.3897 71.6246 10.3897Z" fill="#FF4500"/>
    <path d="M42.0402 19.5447C42.8478 19.6216 43.5488 18.8006 43.6097 17.7075C43.6135 17.6459 43.6135 17.5741 43.6135 17.5074C43.6021 17.1276 43.5678 16.7427 43.5107 16.3681C43.0155 12.8067 40.7564 10.1844 38.0707 10.0407C35.0117 10.0407 32.4556 13.8279 32.4556 18.4773C32.4556 23.1266 34.9698 26.919 38.0669 26.919C39.7088 27.0062 41.3012 26.1133 42.4059 24.4763C42.8593 23.8091 42.8212 22.7777 42.3259 22.167C42.2878 22.1208 42.2536 22.0797 42.2155 22.0438C41.7202 21.6281 41.0764 21.7154 40.6574 22.2594C39.9679 23.1831 39.0422 23.7116 38.0669 23.7527C36.3831 23.5731 35.0346 21.7975 34.867 19.5241H41.9945L42.0402 19.5447ZM38.0555 13.2172C39.5374 13.3507 40.7831 14.7773 41.1145 16.7325H35.0041C35.3317 14.7722 36.5698 13.3455 38.0555 13.2172Z" fill="black"/>
    <path d="M32.5774 11.6777C32.5774 10.8874 32.1431 10.2152 31.5603 10.1177C29.987 9.7636 28.387 10.5488 27.3546 12.1909V11.9856C27.3546 11.1081 26.8289 10.3999 26.1775 10.3999C25.5261 10.3999 25.0004 11.1081 25.0004 11.9856V24.9689C24.9851 25.8208 25.4689 26.5443 26.1013 26.6162C26.7451 26.6778 27.3089 26.0209 27.3508 25.1536C27.3546 25.0921 27.3546 25.0305 27.3508 24.9689V18.3079C27.2479 15.6497 28.7603 13.3866 30.7336 13.2429C30.9089 13.2275 31.0879 13.2326 31.2631 13.2583H31.4993C32.1088 13.1865 32.5774 12.5039 32.5774 11.6777Z" fill="black"/>
    <path d="M72.7979 13.3815C72.7979 12.504 72.2722 11.7958 71.6208 11.7958C70.9694 11.7958 70.4437 12.504 70.4437 13.3815V24.9638C70.4437 25.8413 70.9694 26.5495 71.6208 26.5495C72.2722 26.5495 72.7979 25.8413 72.7979 24.9638V13.3815Z" fill="black"/>
    <path d="M55.4267 4.58057C55.4267 3.70818 54.901 3 54.2534 3C53.6058 3 53.0801 3.70818 53.0801 4.58057V11.6624C52.2877 10.5847 51.1982 9.99967 50.0744 10.0407C47.0154 10.0407 44.4592 13.8279 44.4592 18.4773C44.4592 23.1266 46.9773 26.919 50.0744 26.919C51.2173 26.9652 52.322 26.375 53.1334 25.282C53.3163 26.1184 53.9677 26.5957 54.5886 26.3494C55.0572 26.1646 55.3924 25.6104 55.4229 24.9484L55.4267 4.58057ZM50.0668 23.7938C48.2649 23.7938 46.7983 21.4332 46.7983 18.5132C46.7983 15.5933 48.2535 13.2327 50.0668 13.2327C51.8801 13.2327 53.3353 15.5933 53.3353 18.5132C53.3353 21.4332 51.8801 23.7681 50.0744 23.7681L50.0668 23.7938Z" fill="black"/>
    <path d="M67.7008 4.58057C67.7008 3.70818 67.1751 3 66.5275 3C65.8799 3 65.3542 3.70818 65.3542 4.58057V11.6624C64.5618 10.5847 63.4723 9.99967 62.3485 10.0407C59.2895 10.0407 56.7333 13.8279 56.7333 18.4773C56.7333 23.1266 59.2514 26.919 62.3485 26.919C63.4914 26.9652 64.5961 26.375 65.4075 25.282C65.5904 26.1184 66.2418 26.5957 66.8628 26.3494C67.3313 26.1646 67.6666 25.6104 67.697 24.9484L67.7008 4.58057ZM62.3447 23.7938C60.5428 23.7938 59.0762 21.4332 59.0762 18.5132C59.0762 15.5933 60.5314 13.2327 62.3447 13.2327C64.158 13.2327 65.6132 15.5933 65.6132 18.5132C65.6132 21.4332 64.158 23.7681 62.3523 23.7681L62.3447 23.7938Z" fill="black"/>
    <path d="M78.8969 24.9586V13.2173H79.9141C80.4779 13.2634 80.9579 12.6836 80.9921 11.9292C80.9921 11.9035 80.996 11.8727 80.996 11.8419C81.0455 11.0876 80.6303 10.4205 80.0741 10.3537C80.0436 10.3486 80.0093 10.3486 79.9788 10.3486H78.9007V8.16763C78.9084 7.3209 78.4284 6.60759 77.7998 6.53061C77.156 6.46903 76.596 7.12589 76.5503 7.99315C76.5465 8.02907 76.5465 8.07013 76.5465 8.10605V10.3845H75.5255C74.9617 10.3384 74.4817 10.9182 74.4475 11.6726C74.4475 11.6983 74.4436 11.729 74.4436 11.7598C74.3941 12.5142 74.8094 13.1813 75.3655 13.248C75.396 13.2532 75.4303 13.2532 75.4608 13.2532H76.4779V24.9638C76.4779 25.8362 77.0036 26.5443 77.6512 26.5443C78.2988 26.6008 78.8512 25.9337 78.8931 25.0613C78.8969 25.0305 78.8969 24.9946 78.8969 24.9586Z" fill="black"/>
    <defs>
        <clipPath id="clip0_1_121">
            <rect width="24" height="32.4937" fill="white"/>
        </clipPath>
    </defs>
</svg>
